<svg width="22" height="43" viewBox="0 0 22 43" fill="none" xmlns="http://www.w3.org/2000/svg">
<path d="M1.34375 16.293H20.2402V39.5078C20.2402 40.6944 19.2783 41.6562 18.0918 41.6562H3.49219C2.30564 41.6562 1.34375 40.6944 1.34375 39.5078V16.293Z" fill="#E1CAF8"/>
<path d="M17.1301 22.628C17.0721 22.5051 16.9805 22.4013 16.8658 22.3286C16.7511 22.2559 16.618 22.2173 16.4822 22.2173H13.1153L15.7419 12.3689C15.784 12.2108 15.7708 12.0431 15.7044 11.8935C15.638 11.744 15.5225 11.6217 15.3771 11.5468C15.2316 11.4718 15.0649 11.4489 14.9046 11.4819C14.7444 11.5149 14.6003 11.6018 14.4963 11.7282L4.46303 23.9116C4.37673 24.0164 4.32201 24.1437 4.30527 24.2784C4.28853 24.4132 4.31044 24.5499 4.36847 24.6727C4.42638 24.7955 4.51804 24.8994 4.63276 24.9721C4.74747 25.0448 4.8805 25.0834 5.01632 25.0834H8.38326L5.75664 34.9318C5.71453 35.0899 5.72776 35.2576 5.79412 35.4071C5.86048 35.5567 5.97599 35.679 6.12147 35.7538C6.22272 35.8062 6.33504 35.8334 6.44901 35.8334C6.55479 35.8335 6.65929 35.8102 6.75497 35.7651C6.85064 35.72 6.93512 35.6542 7.0023 35.5725L17.0357 23.3891C17.1219 23.2843 17.1766 23.157 17.1933 23.0223C17.21 22.8875 17.1881 22.7508 17.1301 22.628ZM7.99113 32.1174L10.0085 24.5516C10.0368 24.4454 10.0403 24.3342 10.0188 24.2265C9.99732 24.1188 9.95139 24.0174 9.88456 23.9303C9.81763 23.8431 9.73157 23.7726 9.63303 23.724C9.53449 23.6754 9.4261 23.6501 9.31624 23.6501H6.53484L13.508 15.1827L11.4906 22.7485C11.4623 22.8547 11.4588 22.9659 11.4803 23.0736C11.5018 23.1813 11.5477 23.2827 11.6146 23.3698C11.6815 23.457 11.7675 23.5275 11.8661 23.5761C11.9646 23.6247 12.073 23.65 12.1829 23.6501H14.9643L7.99113 32.1174ZM15.0496 0H6.4496C6.25956 6.67797e-05 6.07731 0.075591 5.94293 0.209972C5.80855 0.344354 5.73303 0.526595 5.73296 0.716639V3.58328C5.73303 3.77332 5.80855 3.95556 5.94293 4.08994C6.07731 4.22432 6.25956 4.29985 6.4496 4.29992H15.0496C15.2396 4.29985 15.4219 4.22432 15.5563 4.08994C15.6906 3.95556 15.7662 3.77332 15.7662 3.58328V0.716639C15.7662 0.526595 15.6906 0.344354 15.5563 0.209972C15.4219 0.075591 15.2396 6.67797e-05 15.0496 0ZM14.333 2.86664H7.16632V1.43336H14.333V2.86664Z" fill="black"/>
<path d="M18.7545 2.86658H2.74553C1.23121 2.86658 0 4.09854 0 5.61219V40.2544C0 41.768 1.23264 42.9999 2.74553 42.9999H18.7545C20.268 42.9999 21.5 41.768 21.5 40.2544V5.61219C21.5 4.09854 20.268 2.86658 18.7545 2.86658ZM20.066 40.2544C20.066 40.9783 19.4776 41.5667 18.7537 41.5667H2.74486C2.021 41.5667 1.43261 40.9783 1.43261 40.2544V5.61219C1.43261 4.88833 2.02167 4.29994 2.74486 4.29994H18.7537C19.4776 4.29994 20.066 4.88833 20.066 5.61219V40.2544Z" fill="black"/>
</svg>
