<svg width="40" height="41" viewBox="0 0 40 41" fill="none" xmlns="http://www.w3.org/2000/svg">
<path d="M14.5545 36.3611V30.726C14.5545 29.2927 15.7538 28.128 17.2396 28.1184H22.6823C24.1753 28.1184 25.3856 29.2859 25.3856 30.726V36.3786C25.3852 37.5955 26.3921 38.5901 27.6534 38.6187H31.2818C34.899 38.6187 37.8312 35.7901 37.8312 32.301V16.2707C37.8119 14.898 37.1438 13.6091 36.017 12.7706L23.6076 3.12789C21.4336 1.44891 18.3432 1.44891 16.1692 3.12789L3.81424 12.7881C2.68317 13.6232 2.01393 14.9143 2 16.2882V32.301C2 35.7901 4.93227 38.6187 8.54941 38.6187H12.1779C13.4704 38.6187 14.5183 37.6079 14.5183 36.3611" stroke="#606060" stroke-width="3.21563" stroke-linecap="round" stroke-linejoin="round"/>
</svg>
