<svg width="41" height="41" viewBox="0 0 41 41" fill="none" xmlns="http://www.w3.org/2000/svg">
<path d="M29.6508 32.0655L29.5838 31.9999H29.49H6.06375C4.51478 31.9999 3.03028 31.3985 1.93657 30.3296C0.843032 29.261 0.229687 27.8127 0.229687 26.3037V6.55085C0.229687 5.04186 0.843031 3.59358 1.93657 2.52491C3.03028 1.45607 4.51478 0.854687 6.06375 0.854687H34.3613C35.9102 0.854687 37.3947 1.45607 38.4884 2.52491C39.582 3.59358 40.1953 5.04186 40.1953 6.55085L40.1953 38.1542C40.1953 38.1545 40.1953 38.1547 40.1953 38.155C40.1934 38.4981 40.0877 38.8336 39.8908 39.1191C39.6938 39.4048 39.414 39.6279 39.0863 39.7595L39.0861 39.7593L39.0757 39.7641C38.8678 39.8599 38.6397 39.9069 38.4095 39.9011V39.901L38.4025 39.901C38.1659 39.9024 37.9316 39.858 37.7129 39.7708C37.4945 39.6836 37.2961 39.5552 37.129 39.3934C37.1288 39.3932 37.1287 39.3931 37.1285 39.3929L29.6508 32.0655ZM36.2216 33.5589L36.6122 33.9423V33.395V6.55085C36.6122 5.96433 36.3737 5.40293 35.951 4.98985C35.5285 4.57694 34.9566 4.34588 34.3613 4.34588H6.06375C5.46845 4.34588 4.89649 4.57694 4.47398 4.98985C4.05128 5.40293 3.81281 5.96433 3.81281 6.55085V26.3037C3.81281 26.8902 4.05128 27.4516 4.47398 27.8647C4.89649 28.2776 5.46845 28.5087 6.06375 28.5087L30.3188 28.5087L30.32 28.5087C30.5566 28.5073 30.7909 28.5516 31.0096 28.6389C31.228 28.7261 31.4263 28.8544 31.5934 29.0162C31.5936 29.0164 31.5938 29.0166 31.594 29.0167L36.2216 33.5589ZM10.1062 18.6323H22.2337C22.7106 18.6323 23.1669 18.8174 23.5025 19.1454C23.8379 19.4732 24.0253 19.9166 24.0253 20.3778C24.0253 20.8391 23.8379 21.2825 23.5025 21.6103C23.1669 21.9383 22.7106 22.1234 22.2337 22.1234H10.1062C9.62942 22.1234 9.17314 21.9383 8.83755 21.6103C8.50213 21.2825 8.31469 20.8391 8.31469 20.3778C8.31469 19.9166 8.50213 19.4732 8.83755 19.1454C9.17314 18.8174 9.62941 18.6323 10.1062 18.6323ZM10.1062 10.7311H30.3188C30.7956 10.7311 31.2519 10.9163 31.5875 11.2442C31.9229 11.572 32.1103 12.0155 32.1103 12.4767C32.1103 12.9379 31.9229 13.3814 31.5875 13.7092C31.2519 14.0371 30.7956 14.2223 30.3188 14.2223H10.1062C9.62942 14.2223 9.17314 14.0371 8.83755 13.7092C8.50213 13.3814 8.31469 12.9379 8.31469 12.4767C8.31469 12.0155 8.50213 11.572 8.83755 11.2442C9.17314 10.9163 9.62941 10.7311 10.1062 10.7311Z" fill="black" stroke="#F5EEFC" stroke-width="0.459375"/>
</svg>
